<svg width="24" height="24" viewBox="0 0 24 24" fill="none" xmlns="http://www.w3.org/2000/svg">
<path d="M12 24C10.36 24 8.81 23.6848 7.35 23.0544C5.89 22.424 4.6148 21.564 3.5244 20.4744C2.4348 19.3848 1.5748 18.11 0.944401 16.65C0.314001 15.19 -0.000798479 13.64 1.52091e-06 12C1.52091e-06 10.34 0.325201 8.78 0.975601 7.32C1.626 5.86 2.506 4.59 3.6156 3.51C4.7252 2.43 6.02 1.5752 7.5 0.9456C8.98 0.316 10.56 0.0008 12.24 0C13.84 0 15.35 0.2752 16.77 0.8256C18.19 1.376 19.4352 2.136 20.5056 3.1056C21.5752 4.0752 22.4252 5.2252 23.0556 6.5556C23.686 7.886 24.0008 9.3208 24 10.86C24 13.16 23.3 14.9252 21.9 16.1556C20.5 17.386 18.8 18.0008 16.8 18H14.58C14.4 18 14.2748 18.05 14.2044 18.15C14.134 18.25 14.0992 18.36 14.1 18.48C14.1 18.72 14.25 19.0652 14.55 19.5156C14.85 19.966 15 20.4808 15 21.06C15 22.06 14.7248 22.8 14.1744 23.28C13.624 23.76 12.8992 24 12 24ZM5.4 13.2C5.92 13.2 6.35 13.03 6.69 12.69C7.03 12.35 7.2 11.92 7.2 11.4C7.2 10.88 7.03 10.45 6.69 10.11C6.35 9.77 5.92 9.6 5.4 9.6C4.88 9.6 4.45 9.77 4.11 10.11C3.77 10.45 3.6 10.88 3.6 11.4C3.6 11.92 3.77 12.35 4.11 12.69C4.45 13.03 4.88 13.2 5.4 13.2ZM9 8.4C9.52 8.4 9.95 8.23 10.29 7.89C10.63 7.55 10.8 7.12 10.8 6.6C10.8 6.08 10.63 5.65 10.29 5.31C9.95 4.97 9.52 4.8 9 4.8C8.48 4.8 8.05 4.97 7.71 5.31C7.37 5.65 7.2 6.08 7.2 6.6C7.2 7.12 7.37 7.55 7.71 7.89C8.05 8.23 8.48 8.4 9 8.4ZM15 8.4C15.52 8.4 15.95 8.23 16.29 7.89C16.63 7.55 16.8 7.12 16.8 6.6C16.8 6.08 16.63 5.65 16.29 5.31C15.95 4.97 15.52 4.8 15 4.8C14.48 4.8 14.05 4.97 13.71 5.31C13.37 5.65 13.2 6.08 13.2 6.6C13.2 7.12 13.37 7.55 13.71 7.89C14.05 8.23 14.48 8.4 15 8.4ZM18.6 13.2C19.12 13.2 19.55 13.03 19.89 12.69C20.23 12.35 20.4 11.92 20.4 11.4C20.4 10.88 20.23 10.45 19.89 10.11C19.55 9.77 19.12 9.6 18.6 9.6C18.08 9.6 17.65 9.77 17.31 10.11C16.97 10.45 16.8 10.88 16.8 11.4C16.8 11.92 16.97 12.35 17.31 12.69C17.65 13.03 18.08 13.2 18.6 13.2ZM12 21.6C12.18 21.6 12.3252 21.55 12.4356 21.45C12.546 21.35 12.6008 21.22 12.6 21.06C12.6 20.78 12.45 20.45 12.15 20.07C11.85 19.69 11.7 19.12 11.7 18.36C11.7 17.52 11.99 16.85 12.57 16.35C13.15 15.85 13.86 15.6 14.7 15.6H16.8C18.12 15.6 19.25 15.2148 20.19 14.4444C21.13 13.674 21.6 12.4792 21.6 10.86C21.6 8.44 20.6748 6.4248 18.8244 4.8144C16.974 3.204 14.7792 2.3992 12.24 2.4C9.52 2.4 7.2 3.33 5.28 5.19C3.36 7.05 2.4 9.32 2.4 12C2.4 14.66 3.3348 16.9252 5.2044 18.7956C7.074 20.666 9.3392 21.6008 12 21.6Z" fill="black"/>
</svg>
