<svg width="17" height="23" viewBox="0 0 17 23" fill="none" xmlns="http://www.w3.org/2000/svg">
<path d="M5.66667 9.51758C5.66667 9.33524 5.59204 9.16037 5.4592 9.03144C5.32636 8.90251 5.14619 8.83008 4.95833 8.83008C4.77047 8.83008 4.5903 8.90251 4.45747 9.03144C4.32463 9.16037 4.25 9.33524 4.25 9.51758V19.1426C4.25 19.3249 4.32463 19.4998 4.45747 19.6287C4.5903 19.7576 4.77047 19.8301 4.95833 19.8301C5.14619 19.8301 5.32636 19.7576 5.4592 19.6287C5.59204 19.4998 5.66667 19.3249 5.66667 19.1426V9.51758ZM8.5 14.3301C8.68786 14.3301 8.86803 14.4025 9.00087 14.5314C9.13371 14.6604 9.20833 14.8352 9.20833 15.0176V19.1426C9.20833 19.3249 9.13371 19.4998 9.00087 19.6287C8.86803 19.7576 8.68786 19.8301 8.5 19.8301C8.31214 19.8301 8.13197 19.7576 7.99913 19.6287C7.86629 19.4998 7.79167 19.3249 7.79167 19.1426V15.0176C7.79167 14.8352 7.86629 14.6604 7.99913 14.5314C8.13197 14.4025 8.31214 14.3301 8.5 14.3301ZM12.75 12.2676C12.75 12.0852 12.6754 11.9104 12.5425 11.7814C12.4097 11.6525 12.2295 11.5801 12.0417 11.5801C11.8538 11.5801 11.6736 11.6525 11.5408 11.7814C11.408 11.9104 11.3333 12.0852 11.3333 12.2676V19.1426C11.3333 19.3249 11.408 19.4998 11.5408 19.6287C11.6736 19.7576 11.8538 19.8301 12.0417 19.8301C12.2295 19.8301 12.4097 19.7576 12.5425 19.6287C12.6754 19.4998 12.75 19.3249 12.75 19.1426V12.2676ZM0 3.33008C0 2.60073 0.298511 1.90126 0.829864 1.38553C1.36122 0.869809 2.08189 0.580078 2.83333 0.580078H9.33017C9.89356 0.58056 10.4337 0.798174 10.8318 1.18508L16.3781 6.56683C16.7762 6.95348 16.9999 7.4777 17 8.02433V19.8301C17 20.5594 16.7015 21.2589 16.1701 21.7746C15.6388 22.2903 14.9181 22.5801 14.1667 22.5801H2.83333C2.08189 22.5801 1.36122 22.2903 0.829864 21.7746C0.298511 21.2589 0 20.5594 0 19.8301V3.33008ZM2.83333 1.95508C2.45761 1.95508 2.09728 2.09994 1.8316 2.35781C1.56592 2.61567 1.41667 2.96541 1.41667 3.33008V19.8301C1.41667 20.1948 1.56592 20.5445 1.8316 20.8024C2.09728 21.0602 2.45761 21.2051 2.83333 21.2051H14.1667C14.5424 21.2051 14.9027 21.0602 15.1684 20.8024C15.4341 20.5445 15.5833 20.1948 15.5833 19.8301V8.83008H10.625C10.0614 8.83008 9.52091 8.61278 9.1224 8.22599C8.72388 7.83919 8.5 7.31459 8.5 6.76758V1.95508H2.83333ZM10.625 7.45508H15.2901L9.91667 2.2397V6.76758C9.91667 6.94991 9.99129 7.12478 10.1241 7.25371C10.257 7.38265 10.4371 7.45508 10.625 7.45508Z" fill="black"/>
</svg>
