<svg width="54" height="90" viewBox="0 0 54 90" fill="none" xmlns="http://www.w3.org/2000/svg">
<path d="M53.9578 50.9375L26.9785 89.9626V67.9697L53.9578 50.9375ZM39.6588 64.6548L30.998 70.105V77.1603L39.6588 64.6548Z" fill="#9A9A9A"/>
<path d="M0 50.9375L26.9793 89.9626V67.9697L0 50.9375ZM14.299 64.6548L22.9598 70.105V77.1603L14.299 64.6548Z" fill="#9A9A9A"/>
<path d="M30.4004 33.0957L48.2689 43.0475L48.9023 44.9839L46.7747 46.8412L30.4004 37.7024V33.0957Z" fill="#9A9A9A"/>
<path d="M23.5673 33.0957L5.69881 43.0475L5.06543 44.9839L7.193 46.8412L23.5673 37.7024V33.0957Z" fill="#9A9A9A"/>
<path d="M26.9785 0L53.9578 46.2027L26.9785 63.1929V0ZM30.963 14.8211V56.0727L48.5885 44.9793L30.963 14.8211Z" fill="#9A9A9A"/>
<path d="M26.9793 0L0 46.2027L26.9793 63.1929V0ZM22.9948 14.8211V56.0727L5.3693 44.9795L22.9948 14.8211Z" fill="#9A9A9A"/>
</svg>
