<svg width="24" height="22" viewBox="0 0 24 22" fill="none" xmlns="http://www.w3.org/2000/svg">
<path d="M18.5759 1H13.0879C12.9173 0.999877 12.7536 1.06729 12.6326 1.1875L1.66114 12.1563C1.42096 12.3976 1.28613 12.7242 1.28613 13.0647C1.28613 13.4052 1.42096 13.7319 1.66114 13.9732L6.88435 19.1964C7.12578 19.4366 7.45249 19.5715 7.79306 19.5715C8.13362 19.5715 8.46033 19.4366 8.70176 19.1964L19.6701 8.23214C19.7903 8.1111 19.8577 7.94739 19.8576 7.77679V2.28572C19.8584 2.11698 19.8258 1.94975 19.7618 1.79365C19.6977 1.63755 19.6034 1.49566 19.4842 1.37616C19.3651 1.25666 19.2235 1.1619 19.0676 1.09735C18.9117 1.03279 18.7446 0.999706 18.5759 1Z" stroke="black" stroke-width="1.5" stroke-linecap="round" stroke-linejoin="round"/>
<path d="M16.286 5.99972C16.0034 5.99972 15.7272 5.91594 15.4923 5.75896C15.2574 5.60199 15.0743 5.37888 14.9662 5.11784C14.858 4.8568 14.8298 4.56957 14.8849 4.29245C14.94 4.01533 15.0761 3.76079 15.2758 3.561C15.4756 3.36121 15.7302 3.22515 16.0073 3.17003C16.2844 3.11491 16.5716 3.1432 16.8327 3.25132C17.0937 3.35945 17.3168 3.54255 17.4738 3.77748C17.6308 4.01241 17.7146 4.28861 17.7146 4.57115C17.7146 4.95003 17.5641 5.31339 17.2961 5.5813C17.0282 5.84921 16.6649 5.99972 16.286 5.99972Z" fill="black"/>
<path d="M10.8398 20.9997L22.5363 9.30329C22.5944 9.24464 22.6402 9.17489 22.6709 9.0982C22.7015 9.02152 22.7165 8.93944 22.7148 8.85686V3.14258" stroke="black" stroke-width="1.5" stroke-linecap="round" stroke-linejoin="round"/>
</svg>
