<svg width="17" height="24" viewBox="0 0 17 24" fill="none" xmlns="http://www.w3.org/2000/svg">
<path d="M8.5 2.25C4.84809 2.25 2.31818 4.785 2.31818 7.875C2.31818 9.351 2.97345 10.3125 3.83891 11.331L4.16964 11.7105C4.51427 12.1065 4.896 12.5445 5.20973 12.9825C5.64864 13.599 6.03964 14.3265 6.16945 15.2175C6.20039 15.5069 6.11458 15.7968 5.93002 16.0261C5.74547 16.2554 5.47654 16.4064 5.17971 16.4474C4.88288 16.4884 4.58125 16.4161 4.33815 16.2458C4.09505 16.0755 3.92941 15.8203 3.876 15.534C3.81418 15.111 3.62409 14.7135 3.30418 14.2635C3.04318 13.9098 2.7636 13.5693 2.46655 13.2435C2.33673 13.0935 2.19918 12.936 2.05236 12.7635C1.08336 11.625 0 10.149 0 7.875C0 3.465 3.65191 0 8.5 0C13.3481 0 17 3.465 17 7.875C17 10.149 15.9166 11.625 14.9476 12.7635C14.8008 12.936 14.6633 13.0935 14.5335 13.242C14.2135 13.6095 13.9415 13.9215 13.6974 14.2635C13.3759 14.7135 13.1874 15.111 13.1255 15.534C13.0686 15.8175 12.9015 16.0689 12.659 16.2363C12.4165 16.4037 12.117 16.4743 11.8224 16.4335C11.5277 16.3927 11.2605 16.2436 11.076 16.017C10.8914 15.7904 10.8035 15.5037 10.8305 15.216C10.9604 14.3265 11.3514 13.599 11.7903 12.9825C12.104 12.5445 12.4857 12.1065 12.8304 11.7105C12.9463 11.5785 13.0575 11.451 13.1595 11.331C14.0265 10.3125 14.6818 9.351 14.6818 7.875C14.6818 4.785 12.1519 2.25 8.5 2.25ZM5.02273 18H11.9773C12.2847 18 12.5795 18.1185 12.7969 18.3295C13.0142 18.5405 13.1364 18.8266 13.1364 19.125C13.1364 19.4234 13.0142 19.7095 12.7969 19.9205C12.5795 20.1315 12.2847 20.25 11.9773 20.25H5.02273C4.71532 20.25 4.4205 20.1315 4.20313 19.9205C3.98575 19.7095 3.86364 19.4234 3.86364 19.125C3.86364 18.8266 3.98575 18.5405 4.20313 18.3295C4.4205 18.1185 4.71532 18 5.02273 18ZM5.40909 22.875C5.40909 22.5766 5.53121 22.2905 5.74858 22.0795C5.96595 21.8685 6.26077 21.75 6.56818 21.75H10.4318C10.7392 21.75 11.034 21.8685 11.2514 22.0795C11.4688 22.2905 11.5909 22.5766 11.5909 22.875C11.5909 23.1734 11.4688 23.4595 11.2514 23.6705C11.034 23.8815 10.7392 24 10.4318 24H6.56818C6.26077 24 5.96595 23.8815 5.74858 23.6705C5.53121 23.4595 5.40909 23.1734 5.40909 22.875Z" fill="black"/>
</svg>
