<svg width="25" height="26" viewBox="0 0 25 26" fill="none" xmlns="http://www.w3.org/2000/svg">
<path d="M12.4184 23.3448H9.97163C6.79078 23.3448 4.26241 20.7793 4.26241 17.5517V14.2414H5.89362V17.5517C5.89362 19.869 7.68794 21.6897 9.97163 21.6897H12.4184V23.3448ZM22.2057 25H24L20.2482 15.8966H18.4539L14.7021 25H16.4965L17.1489 23.3448H21.4716L22.2057 25ZM17.883 21.6897L19.3511 18.0483L20.8191 21.6897H17.883ZM22.2057 12.5862H20.5745V9.27586C20.5745 6.95862 18.7801 5.13793 16.4965 5.13793H13.234V3.48276H16.4965C19.6773 3.48276 22.2057 6.04828 22.2057 9.27586V12.5862ZM10.7872 4.31034V2.65517H6.70922V1H5.07801V2.65517H1V4.31034H7.68794C7.52482 5.05517 7.03546 6.37931 5.89362 7.62069C5.40426 7.04138 4.99645 6.46207 4.75177 5.96552H2.87589C3.20213 6.7931 3.77305 7.78621 4.58865 8.69655C3.93617 9.27586 2.95745 9.77241 1.8156 10.1862L2.38652 11.7586C3.85461 11.1793 4.99645 10.5172 5.89362 9.85517C6.79078 10.6 7.93262 11.2621 9.40071 11.7586L9.97163 10.1862C8.82979 9.77241 7.85106 9.1931 7.11702 8.69655C8.66667 7.04138 9.15603 5.30345 9.31915 4.31034H10.7872Z" fill="black" stroke="black" stroke-width="0.5"/>
</svg>
