<svg width="22" height="24" viewBox="0 0 22 24" fill="none" xmlns="http://www.w3.org/2000/svg">
<path d="M2.4 0H13.2C13.8365 0 14.447 0.252856 14.8971 0.702944C15.3471 1.15303 15.6 1.76348 15.6 2.4V3.6C15.6 3.91826 15.4736 4.22348 15.2485 4.44853C15.0235 4.67357 14.7183 4.8 14.4 4.8C14.0817 4.8 13.7765 4.67357 13.5515 4.44853C13.3264 4.22348 13.2 3.91826 13.2 3.6V2.4H2.4V21.6H13.2V20.4C13.2 20.0817 13.3264 19.7765 13.5515 19.5515C13.7765 19.3264 14.0817 19.2 14.4 19.2C14.7183 19.2 15.0235 19.3264 15.2485 19.5515C15.4736 19.7765 15.6 20.0817 15.6 20.4V21.6C15.6 22.2365 15.3471 22.847 14.8971 23.2971C14.447 23.7471 13.8365 24 13.2 24H2.4C1.76348 24 1.15303 23.7471 0.702944 23.2971C0.252856 22.847 0 22.2365 0 21.6V2.4C0 1.76348 0.252856 1.15303 0.702944 0.702944C1.15303 0.252856 1.76348 0 2.4 0Z" fill="black"/>
<path d="M15.3535 17.1526C15.8215 17.6206 16.5775 17.6206 17.0455 17.1526L21.3511 12.847C21.5761 12.622 21.7025 12.3168 21.7025 11.9986C21.7025 11.6804 21.5761 11.3752 21.3511 11.1502L17.0455 6.84459C16.8174 6.63842 16.5188 6.52778 16.2114 6.53554C15.9041 6.5433 15.6114 6.66886 15.394 6.88628C15.1766 7.10369 15.051 7.39633 15.0433 7.7037C15.0355 8.01108 15.1461 8.30968 15.3523 8.53779L17.6035 10.7986H7.19951C6.88125 10.7986 6.57603 10.925 6.35098 11.1501C6.12594 11.3751 5.99951 11.6803 5.99951 11.9986C5.99951 12.3168 6.12594 12.6221 6.35098 12.8471C6.57603 13.0722 6.88125 13.1986 7.19951 13.1986H17.6035L15.3523 15.4594C15.1283 15.6843 15.0026 15.9888 15.0029 16.3062C15.0031 16.6236 15.1292 16.928 15.3535 17.1526Z" fill="black"/>
</svg>
