<svg width="86" height="77" viewBox="0 0 86 77" fill="none" xmlns="http://www.w3.org/2000/svg">
<path d="M0.00215665 16.0067C0.0362317 15.7542 0.065562 15.5013 0.105244 15.2497C0.349808 13.7031 1.09428 12.4839 2.41933 11.6819C4.68812 10.3082 6.97201 8.9602 9.2477 7.59804C13.1663 5.25244 17.0815 2.89977 21.0057 0.563441C21.3801 0.340534 21.8076 0.209879 22.2143 0.0478851C22.3109 0.00948322 22.4252 0.00639342 22.5318 0.00639342C23.3944 0.00330362 24.2571 0.0138972 25.1198 0.000213815C25.4967 -0.00596579 25.831 0.122482 26.1433 0.297718C26.899 0.721462 27.643 1.16728 28.3862 1.61353C33.7075 4.81104 39.0297 8.00678 44.3462 11.2127C45.6648 12.0076 46.5667 13.1553 46.9575 14.6847C47.0546 15.0648 47.1197 15.4651 47.1223 15.8562C47.1378 18.4605 47.1313 21.0647 47.1361 23.669C47.1361 23.8186 47.0921 23.91 46.9618 23.9868C44.2557 25.5856 41.5517 27.1892 38.8472 28.7906C38.805 28.8157 38.7584 28.8343 38.6691 28.8771V28.599C38.6691 26.2079 38.6825 23.8173 38.6652 21.4262C38.6497 19.2903 37.7564 17.6315 35.9677 16.5157C32.784 14.5302 29.5944 12.5541 26.3965 10.5929C25.6231 10.1184 24.7557 9.90392 23.8529 9.84962C22.637 9.77679 21.5397 10.1162 20.4929 10.7483C17.455 12.5819 14.3943 14.3766 11.3522 16.2031C9.742 17.1698 8.78963 18.6101 8.5373 20.5134C8.49891 20.8034 8.49805 21.1 8.49805 21.394C8.49546 25.0797 8.49503 28.7654 8.49718 32.4511C8.49848 34.1951 9.08336 35.6905 10.3709 36.8541C10.7444 37.1917 11.1796 37.4641 11.6079 37.7302C14.6596 39.6269 17.7121 41.5223 20.7758 43.3987C21.5496 43.8728 22.4145 44.0877 23.3181 44.1464C24.5836 44.2285 25.7072 43.8525 26.7855 43.1833C30.7171 40.7437 34.6577 38.3191 38.6147 35.9223C40.215 34.953 41.8579 34.0556 43.4948 33.1516C46.8402 31.3043 50.0985 29.303 53.3727 27.3295C55.4832 26.0574 57.5889 24.776 59.7067 23.5163C60.377 23.1177 61.1211 22.9191 61.8914 22.8211C63.2997 22.6419 64.5338 23.089 65.7346 23.8102C69.9098 26.3192 74.1049 28.7928 78.2927 31.2796C79.9266 32.2498 81.5682 33.2081 83.1926 34.1946C84.6652 35.0885 85.6111 36.3862 85.9203 38.1288C85.9816 38.4731 85.995 38.8298 85.995 39.1807C85.9988 46.3976 86.004 53.6145 85.995 60.8309C85.992 63.09 84.9723 64.7457 83.0697 65.8709C78.517 68.5638 73.9725 71.2705 69.4242 73.9714C68.0573 74.7832 66.6951 75.6037 65.3192 76.3991C64.947 76.6141 64.5355 76.7611 64.1352 76.9213C64.0058 76.973 63.8544 76.9831 63.7129 76.984C62.9797 76.9897 62.2447 76.9557 61.5136 76.9959C60.8705 77.0317 60.3119 76.8304 59.7771 76.513C56.7375 74.7117 53.6992 72.9068 50.6609 71.1028C47.6727 69.3279 44.6784 67.5632 41.6987 65.7724C40.1244 64.8261 39.1897 63.4118 38.9352 61.55C38.8986 61.2821 38.9076 61.0066 38.9072 60.7347C38.9055 58.3657 38.9085 55.9972 38.9016 53.6282C38.9011 53.4163 38.9697 53.2993 39.1483 53.1938C41.8122 51.6233 44.4722 50.0449 47.1331 48.4691C47.193 48.4333 47.2556 48.4015 47.3621 48.3433V48.6589C47.3621 50.8734 47.3595 53.0875 47.3634 55.302C47.3647 55.9866 47.413 56.665 47.6261 57.3236C48.0764 58.7158 48.908 59.7879 50.1498 60.5264C53.3175 62.4098 56.4817 64.299 59.6541 66.1745C60.3257 66.5714 61.0654 66.7819 61.8371 66.8777C63.1811 67.0441 64.3992 66.7192 65.5564 66.0042C68.5205 64.1728 71.5075 62.3794 74.4781 60.559C75.9083 59.6824 76.8516 58.4244 77.1989 56.7365C77.2666 56.4086 77.3089 56.0678 77.3093 55.7332C77.3171 51.8198 77.3468 47.9054 77.3007 43.9924C77.2774 42.0149 76.4091 40.4104 74.7511 39.3789C72.2407 37.8176 69.6804 36.3412 67.1411 34.8285C66.5079 34.4511 65.8726 34.0772 65.2416 33.6967C64.2918 33.1238 63.2622 32.8369 62.1653 32.8285C61.2082 32.821 60.3028 33.0532 59.4691 33.5497C55.0484 36.1827 50.6294 38.8179 46.2066 41.4468C42.225 43.8136 38.2386 46.172 34.2566 48.5379C31.6535 50.0846 29.0569 51.6423 26.4517 53.1854C25.7098 53.6251 24.8998 53.8626 24.0444 53.9508C22.7155 54.0877 21.5414 53.6833 20.4032 53.0031C14.7834 49.6436 9.15022 46.3089 3.51922 42.9692C2.77129 42.5256 2.02854 42.0811 1.44754 41.4062C0.612919 40.4369 0.122066 39.3215 0.0534848 38.022C0.0491715 37.9364 0.0185472 37.8525 0 37.7678C0 30.5142 0 23.2603 0 16.0067H0.00215665Z" fill="black"/>
</svg>
