<svg width="26" height="26" viewBox="0 0 26 26" fill="none" xmlns="http://www.w3.org/2000/svg">
<rect width="26" height="26" fill="#CCCCCC"/>
<g id="Group 7034">
<rect id="Rectangle 4624" x="-15.5" y="-18.5" width="299" height="395" rx="15.5" fill="white" stroke="#9A9A9A"/>
<path id="Vector" d="M3.72559 20.6151C3.72559 20.6151 6.40039 17.1999 13.0004 17.1999C19.6004 17.1999 22.2764 20.6151 22.2764 20.6151M13 1C6.3724 1 1 6.3724 1 13C1 19.6276 6.3724 25 13 25C19.6276 25 25 19.6276 25 13C25 6.3724 19.6276 1 13 1ZM13.0004 12.9999C13.9552 12.9999 14.8708 12.6206 15.546 11.9455C16.2211 11.2703 16.6004 10.3547 16.6004 9.39988C16.6004 8.4451 16.2211 7.52943 15.546 6.8543C14.8708 6.17917 13.9552 5.79988 13.0004 5.79988C12.0456 5.79988 11.1299 6.17917 10.4548 6.8543C9.77967 7.52943 9.40039 8.4451 9.40039 9.39988C9.40039 10.3547 9.77967 11.2703 10.4548 11.9455C11.1299 12.6206 12.0456 12.9999 13.0004 12.9999Z" stroke="black" stroke-width="2" stroke-linecap="round" stroke-linejoin="round"/>
</g>
</svg>
