<svg width="22" height="16" viewBox="0 0 22 16" fill="none" xmlns="http://www.w3.org/2000/svg">
<path d="M10.9547 1C4.64767 1 1.58767 6.683 1.04467 7.808C1.01528 7.86774 1 7.93343 1 8C1 8.06657 1.01528 8.13226 1.04467 8.192C1.58667 9.317 4.64667 15 10.9547 15C17.2627 15 20.3217 9.317 20.8647 8.192C20.8941 8.13226 20.9093 8.06657 20.9093 8C20.9093 7.93343 20.8941 7.86774 20.8647 7.808C20.3227 6.683 17.2627 1 10.9547 1Z" stroke="black" stroke-width="2" stroke-linecap="round" stroke-linejoin="round"/>
<path d="M10.9551 11C12.6119 11 13.9551 9.65685 13.9551 8C13.9551 6.34315 12.6119 5 10.9551 5C9.29822 5 7.95508 6.34315 7.95508 8C7.95508 9.65685 9.29822 11 10.9551 11Z" stroke="black" stroke-width="2" stroke-linecap="round" stroke-linejoin="round"/>
</svg>
