<svg width="27" height="20" viewBox="0 0 27 20" fill="none" xmlns="http://www.w3.org/2000/svg">
<path d="M13.5 1C5.58035 1 1.73793 8.1361 1.05609 9.54875C1.01919 9.62377 1 9.70625 1 9.78985C1 9.87344 1.01919 9.95593 1.05609 10.0309C1.73667 11.4436 5.57909 18.5797 13.5 18.5797C21.4209 18.5797 25.2621 11.4436 25.9439 10.0309C25.9808 9.95593 26 9.87344 26 9.78985C26 9.70625 25.9808 9.62377 25.9439 9.54875C25.2633 8.1361 21.4209 1 13.5 1Z" stroke="black" stroke-width="2" stroke-linecap="round" stroke-linejoin="round"/>
<path d="M13.5 13.5576C15.5805 13.5576 17.2671 11.871 17.2671 9.79052C17.2671 7.71002 15.5805 6.02344 13.5 6.02344C11.4195 6.02344 9.73291 7.71002 9.73291 9.79052C9.73291 11.871 11.4195 13.5576 13.5 13.5576Z" stroke="black" stroke-width="2" stroke-linecap="round" stroke-linejoin="round"/>
</svg>
